<svg width="14" height="14" viewBox="0 0 14 14" fill="none" xmlns="http://www.w3.org/2000/svg">
<g clip-path="url(#clip0_37_104734)">
<path d="M6.99951 13.1242C5.37506 13.1242 3.81714 12.4789 2.66848 11.3302C1.51982 10.1815 0.874512 8.62363 0.874512 6.99918C0.874512 5.37473 1.51982 3.81681 2.66848 2.66815C3.81714 1.51949 5.37506 0.874176 6.99951 0.874176C8.62396 0.874176 10.1819 1.51949 11.3305 2.66815C12.4792 3.81681 13.1245 5.37473 13.1245 6.99918C13.1245 8.62363 12.4792 10.1815 11.3305 11.3302C10.1819 12.4789 8.62396 13.1242 6.99951 13.1242ZM6.99951 13.9992C8.85603 13.9992 10.6365 13.2617 11.9493 11.9489C13.262 10.6362 13.9995 8.85569 13.9995 6.99918C13.9995 5.14266 13.262 3.36218 11.9493 2.04943C10.6365 0.736674 8.85603 -0.000823975 6.99951 -0.000823975C5.143 -0.000823975 3.36252 0.736674 2.04976 2.04943C0.73701 3.36218 -0.000488281 5.14266 -0.000488281 6.99918C-0.000488281 8.85569 0.73701 10.6362 2.04976 11.9489C3.36252 13.2617 5.143 13.9992 6.99951 13.9992Z" fill="#6C757D"/>
<path d="M7.81326 5.76368L5.80951 6.0148L5.73776 6.3473L6.13151 6.41993C6.38876 6.48118 6.43951 6.57393 6.38351 6.8303L5.73776 9.8648C5.56801 10.6497 5.82964 11.0189 6.44476 11.0189C6.92164 11.0189 7.47551 10.7984 7.72664 10.4957L7.80364 10.1317C7.62864 10.2857 7.37314 10.3469 7.20339 10.3469C6.96276 10.3469 6.87526 10.1781 6.93739 9.88055L7.81326 5.76368ZM7.87451 3.93668C7.87451 4.16874 7.78232 4.3913 7.61823 4.55539C7.45414 4.71949 7.23158 4.81168 6.99951 4.81168C6.76745 4.81168 6.54489 4.71949 6.38079 4.55539C6.2167 4.3913 6.12451 4.16874 6.12451 3.93668C6.12451 3.70461 6.2167 3.48205 6.38079 3.31796C6.54489 3.15386 6.76745 3.06168 6.99951 3.06168C7.23158 3.06168 7.45414 3.15386 7.61823 3.31796C7.78232 3.48205 7.87451 3.70461 7.87451 3.93668Z" fill="#6C757D"/>
</g>
<defs>
<clipPath id="clip0_37_104734">
<rect width="14" height="14" fill="white"/>
</clipPath>
</defs>
</svg>
