<svg width="16" height="16" viewBox="0 0 16 16" fill="none" xmlns="http://www.w3.org/2000/svg">
<g clip-path="url(#clip0_37_104509)">
<path d="M7.99951 14.9991C6.143 14.9991 4.36252 14.2616 3.04976 12.9489C1.73701 11.6361 0.999512 9.85566 0.999512 7.99915C0.999512 6.14263 1.73701 4.36215 3.04976 3.0494C4.36252 1.73664 6.143 0.999146 7.99951 0.999146C9.85603 0.999146 11.6365 1.73664 12.9493 3.0494C14.262 4.36215 14.9995 6.14263 14.9995 7.99915C14.9995 9.85566 14.262 11.6361 12.9493 12.9489C11.6365 14.2616 9.85603 14.9991 7.99951 14.9991ZM7.99951 15.9991C10.1212 15.9991 12.1561 15.1563 13.6564 13.656C15.1567 12.1557 15.9995 10.1209 15.9995 7.99915C15.9995 5.87741 15.1567 3.84258 13.6564 2.34229C12.1561 0.842 10.1212 -0.000854492 7.99951 -0.000854492C5.87778 -0.000854492 3.84295 0.842 2.34266 2.34229C0.842367 3.84258 -0.000488281 5.87741 -0.000488281 7.99915C-0.000488281 10.1209 0.842367 12.1557 2.34266 13.656C3.84295 15.1563 5.87778 15.9991 7.99951 15.9991Z" fill="white"/>
<path d="M7.99951 3.99915C8.13212 3.99915 8.2593 4.05182 8.35307 4.14559C8.44683 4.23936 8.49951 4.36654 8.49951 4.49915V7.49915H11.4995C11.6321 7.49915 11.7593 7.55182 11.8531 7.64559C11.9468 7.73936 11.9995 7.86654 11.9995 7.99915C11.9995 8.13175 11.9468 8.25893 11.8531 8.3527C11.7593 8.44647 11.6321 8.49915 11.4995 8.49915H8.49951V11.4991C8.49951 11.6318 8.44683 11.7589 8.35307 11.8527C8.2593 11.9465 8.13212 11.9991 7.99951 11.9991C7.8669 11.9991 7.73973 11.9465 7.64596 11.8527C7.55219 11.7589 7.49951 11.6318 7.49951 11.4991V8.49915H4.49951C4.3669 8.49915 4.23973 8.44647 4.14596 8.3527C4.05219 8.25893 3.99951 8.13175 3.99951 7.99915C3.99951 7.86654 4.05219 7.73936 4.14596 7.64559C4.23973 7.55182 4.3669 7.49915 4.49951 7.49915H7.49951V4.49915C7.49951 4.36654 7.55219 4.23936 7.64596 4.14559C7.73973 4.05182 7.8669 3.99915 7.99951 3.99915Z" fill="white"/>
</g>
<defs>
<clipPath id="clip0_37_104509">
<rect width="16" height="16" fill="white"/>
</clipPath>
</defs>
</svg>
