<svg width="16" height="16" viewBox="0 0 16 16" fill="none" xmlns="http://www.w3.org/2000/svg">
<g clip-path="url(#clip0_35_91325)">
<path d="M15.5445 6.55718C15.6378 7.09414 15.6843 7.63818 15.6835 8.18318C15.6835 10.6172 14.8135 12.6752 13.2995 14.0682H13.3015C11.9775 15.2912 10.1575 15.9992 7.99951 15.9992C5.87778 15.9992 3.84295 15.1563 2.34266 13.656C0.842367 12.1557 -0.000488281 10.1209 -0.000488281 7.99918C-0.000488281 5.87745 0.842367 3.84261 2.34266 2.34232C3.84295 0.842032 5.87778 -0.000822516 7.99951 -0.000822516C9.98545 -0.0240809 11.9034 0.72201 13.3515 2.08118L11.0675 4.36518C10.2419 3.57815 9.14001 3.14717 7.99951 3.16518C5.91251 3.16518 4.13951 4.57318 3.50751 6.46918C3.17242 7.46268 3.17242 8.53867 3.50751 9.53218H3.51051C4.14551 11.4252 5.91551 12.8332 8.00251 12.8332C9.08051 12.8332 10.0065 12.5572 10.7245 12.0692H10.7215C11.1384 11.793 11.495 11.4352 11.7699 11.0174C12.0447 10.5995 12.232 10.1304 12.3205 9.63818H7.99951V6.55818H15.5445V6.55718Z" fill="#64BAAA"/>
</g>
<defs>
<clipPath id="clip0_35_91325">
<rect width="16" height="16" fill="white"/>
</clipPath>
</defs>
</svg>
