<svg width="16" height="16" viewBox="0 0 16 16" fill="none" xmlns="http://www.w3.org/2000/svg">
<g clip-path="url(#clip0_37_104498)">
<path d="M13.9995 0.999146C14.2647 0.999146 14.5191 1.1045 14.7066 1.29204C14.8942 1.47958 14.9995 1.73393 14.9995 1.99915V13.9991C14.9995 14.2644 14.8942 14.5187 14.7066 14.7063C14.5191 14.8938 14.2647 14.9991 13.9995 14.9991H1.99951C1.7343 14.9991 1.47994 14.8938 1.2924 14.7063C1.10487 14.5187 0.999512 14.2644 0.999512 13.9991V1.99915C0.999512 1.73393 1.10487 1.47958 1.2924 1.29204C1.47994 1.1045 1.7343 0.999146 1.99951 0.999146H13.9995ZM1.99951 -0.000854492C1.46908 -0.000854492 0.960371 0.209859 0.585298 0.584932C0.210225 0.960005 -0.000488281 1.46871 -0.000488281 1.99915V13.9991C-0.000488281 14.5296 0.210225 15.0383 0.585298 15.4134C0.960371 15.7884 1.46908 15.9991 1.99951 15.9991H13.9995C14.5299 15.9991 15.0387 15.7884 15.4137 15.4134C15.7888 15.0383 15.9995 14.5296 15.9995 13.9991V1.99915C15.9995 1.46871 15.7888 0.960005 15.4137 0.584932C15.0387 0.209859 14.5299 -0.000854492 13.9995 -0.000854492H1.99951Z" fill="white"/>
<path d="M7.99951 3.99915C8.13212 3.99915 8.2593 4.05182 8.35307 4.14559C8.44683 4.23936 8.49951 4.36654 8.49951 4.49915V7.49915H11.4995C11.6321 7.49915 11.7593 7.55182 11.8531 7.64559C11.9468 7.73936 11.9995 7.86654 11.9995 7.99915C11.9995 8.13175 11.9468 8.25893 11.8531 8.3527C11.7593 8.44647 11.6321 8.49915 11.4995 8.49915H8.49951V11.4991C8.49951 11.6318 8.44683 11.7589 8.35307 11.8527C8.2593 11.9465 8.13212 11.9991 7.99951 11.9991C7.8669 11.9991 7.73973 11.9465 7.64596 11.8527C7.55219 11.7589 7.49951 11.6318 7.49951 11.4991V8.49915H4.49951C4.3669 8.49915 4.23973 8.44647 4.14596 8.3527C4.05219 8.25893 3.99951 8.13175 3.99951 7.99915C3.99951 7.86654 4.05219 7.73936 4.14596 7.64559C4.23973 7.55182 4.3669 7.49915 4.49951 7.49915H7.49951V4.49915C7.49951 4.36654 7.55219 4.23936 7.64596 4.14559C7.73973 4.05182 7.8669 3.99915 7.99951 3.99915Z" fill="white"/>
</g>
<defs>
<clipPath id="clip0_37_104498">
<rect width="16" height="16" fill="white"/>
</clipPath>
</defs>
</svg>
