<svg width="16" height="16" viewBox="0 0 16 16" fill="none" xmlns="http://www.w3.org/2000/svg">
<g clip-path="url(#clip0_37_104812)">
<path d="M13.9995 0.999178C14.2647 0.999178 14.5191 1.10453 14.7066 1.29207C14.8942 1.47961 14.9995 1.73396 14.9995 1.99918V13.9992C14.9995 14.2644 14.8942 14.5187 14.7066 14.7063C14.5191 14.8938 14.2647 14.9992 13.9995 14.9992H1.99951C1.7343 14.9992 1.47994 14.8938 1.2924 14.7063C1.10487 14.5187 0.999512 14.2644 0.999512 13.9992V1.99918C0.999512 1.73396 1.10487 1.47961 1.2924 1.29207C1.47994 1.10453 1.7343 0.999178 1.99951 0.999178H13.9995ZM1.99951 -0.000822067C1.46908 -0.000822067 0.960371 0.209892 0.585298 0.584964C0.210225 0.960037 -0.000488281 1.46874 -0.000488281 1.99918V13.9992C-0.000488281 14.5296 0.210225 15.0383 0.585298 15.4134C0.960371 15.7885 1.46908 15.9992 1.99951 15.9992H13.9995C14.5299 15.9992 15.0387 15.7885 15.4137 15.4134C15.7888 15.0383 15.9995 14.5296 15.9995 13.9992V1.99918C15.9995 1.46874 15.7888 0.960037 15.4137 0.584964C15.0387 0.209892 14.5299 -0.000822067 13.9995 -0.000822067H1.99951Z" fill="white"/>
<path d="M7.99951 3.99918C8.13212 3.99918 8.2593 4.05186 8.35307 4.14562C8.44683 4.23939 8.49951 4.36657 8.49951 4.49918V7.49918H11.4995C11.6321 7.49918 11.7593 7.55186 11.8531 7.64562C11.9468 7.73939 11.9995 7.86657 11.9995 7.99918C11.9995 8.13179 11.9468 8.25896 11.8531 8.35273C11.7593 8.4465 11.6321 8.49918 11.4995 8.49918H8.49951V11.4992C8.49951 11.6318 8.44683 11.759 8.35307 11.8527C8.2593 11.9465 8.13212 11.9992 7.99951 11.9992C7.8669 11.9992 7.73973 11.9465 7.64596 11.8527C7.55219 11.759 7.49951 11.6318 7.49951 11.4992V8.49918H4.49951C4.3669 8.49918 4.23973 8.4465 4.14596 8.35273C4.05219 8.25896 3.99951 8.13179 3.99951 7.99918C3.99951 7.86657 4.05219 7.73939 4.14596 7.64562C4.23973 7.55186 4.3669 7.49918 4.49951 7.49918H7.49951V4.49918C7.49951 4.36657 7.55219 4.23939 7.64596 4.14562C7.73973 4.05186 7.8669 3.99918 7.99951 3.99918Z" fill="white"/>
</g>
<defs>
<clipPath id="clip0_37_104812">
<rect width="16" height="16" fill="white"/>
</clipPath>
</defs>
</svg>
