<svg width="17" height="16" viewBox="0 0 17 16" fill="none" xmlns="http://www.w3.org/2000/svg">
<g clip-path="url(#clip0_35_91311)">
<path d="M16.0445 6.55719C16.1378 7.09414 16.1843 7.63819 16.1835 8.18319C16.1835 10.6172 15.3135 12.6752 13.7995 14.0682H13.8015C12.4775 15.2912 10.6575 15.9992 8.49951 15.9992C6.37778 15.9992 4.34295 15.1563 2.84266 13.656C1.34237 12.1557 0.499512 10.1209 0.499512 7.99919C0.499512 5.87745 1.34237 3.84262 2.84266 2.34233C4.34295 0.84204 6.37778 -0.000814887 8.49951 -0.000814887C10.4854 -0.0240732 12.4034 0.722018 13.8515 2.08119L11.5675 4.36519C10.7419 3.57816 9.64001 3.14718 8.49951 3.16518C6.41251 3.16518 4.63951 4.57318 4.00751 6.46918C3.67242 7.46269 3.67242 8.53868 4.00751 9.53219H4.01051C4.64551 11.4252 6.41551 12.8332 8.50251 12.8332C9.58051 12.8332 10.5065 12.5572 11.2245 12.0692H11.2215C11.6384 11.793 11.995 11.4352 12.2699 11.0174C12.5447 10.5996 12.732 10.1304 12.8205 9.63819H8.49951V6.55819H16.0445V6.55719Z" fill="#64BAAA"/>
</g>
<defs>
<clipPath id="clip0_35_91311">
<rect width="16" height="16" fill="white" transform="translate(0.5)"/>
</clipPath>
</defs>
</svg>
