<svg width="16" height="16" viewBox="0 0 16 16" fill="none" xmlns="http://www.w3.org/2000/svg">
<g clip-path="url(#clip0_37_104823)">
<path d="M7.99951 14.9992C6.143 14.9992 4.36252 14.2617 3.04976 12.9489C1.73701 11.6362 0.999512 9.85569 0.999512 7.99918C0.999512 6.14266 1.73701 4.36219 3.04976 3.04943C4.36252 1.73668 6.143 0.999178 7.99951 0.999178C9.85603 0.999178 11.6365 1.73668 12.9493 3.04943C14.262 4.36219 14.9995 6.14266 14.9995 7.99918C14.9995 9.85569 14.262 11.6362 12.9493 12.9489C11.6365 14.2617 9.85603 14.9992 7.99951 14.9992ZM7.99951 15.9992C10.1212 15.9992 12.1561 15.1563 13.6564 13.656C15.1567 12.1557 15.9995 10.1209 15.9995 7.99918C15.9995 5.87745 15.1567 3.84261 13.6564 2.34232C12.1561 0.842033 10.1212 -0.000822067 7.99951 -0.000822067C5.87778 -0.000822067 3.84295 0.842033 2.34266 2.34232C0.842367 3.84261 -0.000488281 5.87745 -0.000488281 7.99918C-0.000488281 10.1209 0.842367 12.1557 2.34266 13.656C3.84295 15.1563 5.87778 15.9992 7.99951 15.9992Z" fill="white"/>
<path d="M7.99951 3.99918C8.13212 3.99918 8.2593 4.05186 8.35307 4.14562C8.44683 4.23939 8.49951 4.36657 8.49951 4.49918V7.49918H11.4995C11.6321 7.49918 11.7593 7.55186 11.8531 7.64562C11.9468 7.73939 11.9995 7.86657 11.9995 7.99918C11.9995 8.13179 11.9468 8.25896 11.8531 8.35273C11.7593 8.4465 11.6321 8.49918 11.4995 8.49918H8.49951V11.4992C8.49951 11.6318 8.44683 11.759 8.35307 11.8527C8.2593 11.9465 8.13212 11.9992 7.99951 11.9992C7.8669 11.9992 7.73973 11.9465 7.64596 11.8527C7.55219 11.759 7.49951 11.6318 7.49951 11.4992V8.49918H4.49951C4.3669 8.49918 4.23973 8.4465 4.14596 8.35273C4.05219 8.25896 3.99951 8.13179 3.99951 7.99918C3.99951 7.86657 4.05219 7.73939 4.14596 7.64562C4.23973 7.55186 4.3669 7.49918 4.49951 7.49918H7.49951V4.49918C7.49951 4.36657 7.55219 4.23939 7.64596 4.14562C7.73973 4.05186 7.8669 3.99918 7.99951 3.99918Z" fill="white"/>
</g>
<defs>
<clipPath id="clip0_37_104823">
<rect width="16" height="16" fill="white"/>
</clipPath>
</defs>
</svg>
